<svg xmlns="http://www.w3.org/2000/svg" xmlns:xlink="http://www.w3.org/1999/xlink" width="3780" zoomAndPan="magnify" viewBox="0 0 2835 1417.499962" height="1890" preserveAspectRatio="xMidYMid meet" version="1.0"><defs><clipPath id="226fbe1599"><path d="M 0.5 0 L 2834.5 0 L 2834.5 1417 L 0.5 1417 Z M 0.5 0 " clip-rule="nonzero"/></clipPath><clipPath id="dd37fbc33a"><path d="M 0.5 0 L 2834.5 0 L 2834.5 1417 L 0.5 1417 Z M 0.5 0 " clip-rule="nonzero"/></clipPath><clipPath id="c48a632f30"><path d="M 0.5 380 L 2834.5 380 L 2834.5 802 L 0.5 802 Z M 0.5 380 " clip-rule="nonzero"/></clipPath><clipPath id="6f68b9075f"><rect x="0" width="2835" y="0" height="1417"/></clipPath></defs><g clip-path="url(#226fbe1599)"><path fill="#ffffff" d="M 0.5 0 L 2834.5 0 L 2834.5 1417 L 0.5 1417 Z M 0.5 0 " fill-opacity="1" fill-rule="nonzero"/><g transform="matrix(1, 0, 0, 1, 0, 0)"><g clip-path="url(#6f68b9075f)"><g clip-path="url(#dd37fbc33a)"><path fill="#f9829b" d="M 0.5 0 L 2834.855469 0 L 2834.855469 1417.175781 L 0.5 1417.175781 Z M 0.5 0 " fill-opacity="1" fill-rule="nonzero"/></g><g clip-path="url(#c48a632f30)"><path fill="#ffffff" d="M -170.21875 456.824219 C -170.21875 456.824219 -37.332031 351.296875 115.09375 456.824219 C 267.519531 562.347656 353.503906 366.929688 529.378906 409.921875 C 705.253906 452.914062 658.355469 500.671875 775.605469 488.519531 C 892.855469 476.363281 974.933594 323.089844 1158.625 403.636719 C 1342.320312 484.183594 1389.21875 523.265625 1541.644531 460.730469 C 1694.070312 398.195312 1737.0625 376.082031 1842.589844 435.996094 C 1948.113281 495.90625 1975.472656 495.90625 2041.914062 456.824219 C 2108.355469 417.738281 2249.058594 352.632812 2378.035156 435.996094 C 2507.011719 519.355469 2632.078125 477.699219 2686.792969 435.996094 C 2741.511719 394.289062 2839.21875 354.488281 2976.011719 491.640625 C 2976.011719 491.640625 3001.632812 501.117188 3008.582031 525.4375 C 3015.53125 549.753906 3019.003906 770.359375 3019.003906 770.359375 C 3019.003906 770.359375 3027.691406 791.203125 2984.265625 798.152344 C 2940.839844 805.101562 -107.683594 798.152344 -107.683594 798.152344 C -107.683594 798.152344 -172.824219 813.785156 -170.21875 772.097656 C -167.613281 730.40625 -183.675781 521.992188 -183.675781 521.992188 C -183.675781 521.992188 -192.363281 458.125 -170.21875 456.824219 Z M -170.21875 456.824219 " fill-opacity="1" fill-rule="nonzero"/></g></g></g></g></svg>